<svg width="22pt" height="22pt" viewBox="0 0 128 128" xmlns="http://www.w3.org/2000/svg" xmlns:svg="http://www.w3.org/2000/svg">
 <metadata id="metadata7">image/svg+xml</metadata>
 <g>
  <g stroke="null" id="layer1">
   <path stroke="#a0a0ff" d="m62.98237,124.8691l-52.98313,-30.489l0,-60.97796l52.98313,-30.48897l52.98313,30.48897l0,60.97796l-52.98313,30.489z" id="path4142" stroke-miterlimit="4" stroke-width="1.2218" fill="#a0a0ff"/>
   <g stroke="null" transform="matrix(3.659923335400057,0,0,3.647856469142962,20.327076261330674,1218.0946222935067) " id="g4657">
    <path stroke="null" d="m3.22135,-313.27808l4.72483,4.70973l10.79962,-10.7651l-4.72483,-4.70973l-10.79962,10.7651zm13.51982,-13.47661l-1.99364,1.98727l4.72409,4.70899l1.99364,-1.98727c0.6766,-0.67444 -0.00001,-1.34889 -0.00001,-1.34889l-3.37088,-3.3601c0,0 -0.6766,-0.67444 -1.3532,0zm-14.18411,14.11637l-0.99229,5.72125l5.7273,-1.00138l-4.735,-4.71987l-0.00001,0z" id="editor_pencil_pen_edit_write_glyph" fill="#000000"/>
    <rect stroke="null" stroke-width="null" stroke-linejoin="null" stroke-linecap="null" x="-236.34445" y="-219.86093" width="26.11743" height="2.10315" id="svg_1" transform="matrix(0.69825835,0.71584585,-0.71584585,0.69825835,11.119094,-4.6050809) "/>
   </g>
  </g>
 </g>
</svg>